<?xml version="1.0" encoding="UTF-8"?>
<svg xmlns="http://www.w3.org/2000/svg" xmlns:xlink="http://www.w3.org/1999/xlink" width="2160pt" height="2160pt" viewBox="0 0 2160 2160" version="1.1">
<g id="surface1">
<path style=" stroke:none;fill-rule:nonzero;fill:rgb(12.939453%,54.881287%,76.171875%);fill-opacity:1;" d="M 987.175781 493.519531 L 806.191406 588.511719 L 806.191406 1276.609375 L 987.175781 1156.378906 Z M 987.175781 493.519531 "/>
<path style=" stroke:none;fill-rule:nonzero;fill:rgb(12.939453%,54.881287%,76.171875%);fill-opacity:1;" d="M 1130.308594 483.390625 L 1130.308594 1276.609375 L 1346.101563 1168.714844 L 1346.101563 330.621094 Z M 1130.308594 483.390625 "/>
<path style=" stroke:none;fill-rule:nonzero;fill:rgb(0%,21.166992%,34.104919%);fill-opacity:1;" d="M 501.066406 1471.304688 L 532.476563 1471.304688 L 532.476563 1528.328125 C 517.5625 1539.078125 493.910156 1546.929688 474.425781 1546.929688 C 431.886719 1546.929688 399.878906 1515.105469 399.878906 1472.960938 C 399.878906 1430.808594 432.679688 1399.402344 476.8125 1399.402344 C 497.6875 1399.402344 519.753906 1407.667969 534.070313 1420.890625 L 513.390625 1447.335938 C 503.449219 1437.625 489.339844 1431.429688 476.617188 1431.429688 C 454.152344 1431.429688 437.25 1449.402344 437.25 1472.960938 C 437.25 1496.714844 454.347656 1514.695313 477.011719 1514.695313 C 483.96875 1514.695313 492.71875 1512.214844 501.066406 1507.878906 "/>
<path style=" stroke:none;fill-rule:nonzero;fill:rgb(0%,21.166992%,34.104919%);fill-opacity:1;" d="M 698.269531 1472.75 C 698.269531 1515.105469 666.066406 1546.929688 622.921875 1546.929688 C 579.785156 1546.929688 547.582031 1515.105469 547.582031 1472.75 C 547.582031 1430.605469 579.785156 1399.402344 622.921875 1399.402344 C 666.066406 1399.402344 698.269531 1430.808594 698.269531 1472.75 M 584.953125 1472.960938 C 584.953125 1496.511719 602.648438 1514.695313 623.320313 1514.695313 C 644.191406 1514.695313 660.898438 1496.511719 660.898438 1472.960938 C 660.898438 1449.40625 644.191406 1431.636719 623.320313 1431.636719 C 602.449219 1431.636719 584.953125 1449.40625 584.953125 1472.960938 "/>
<path style=" stroke:none;fill-rule:nonzero;fill:rgb(0%,21.166992%,34.104919%);fill-opacity:1;" d="M 834.238281 1437.003906 C 834.238281 1452.09375 824.898438 1464.28125 810.179688 1468.410156 C 827.875 1472.132813 838.808594 1486.386719 838.808594 1504.980469 C 838.808594 1529.777344 817.9375 1545.277344 785.132813 1545.277344 L 716.351563 1545.277344 L 716.351563 1400.433594 L 782.546875 1400.433594 C 814.160156 1400.433594 834.238281 1414.6875 834.238281 1437.003906 M 796.867188 1443.621094 C 796.867188 1434.9375 790.699219 1429.773438 780.5625 1429.980469 L 752.730469 1429.980469 L 752.730469 1458.078125 L 780.5625 1458.078125 C 790.699219 1458.078125 796.867188 1452.707031 796.867188 1443.621094 M 801.242188 1500.230469 C 801.242188 1491.136719 793.285156 1485.355469 780.5625 1485.5625 L 752.730469 1485.5625 L 752.730469 1515.933594 L 780.5625 1515.933594 C 793.285156 1515.933594 801.242188 1510.148438 801.242188 1500.230469 "/>
<path style=" stroke:none;fill-rule:nonzero;fill:rgb(0%,21.166992%,34.104919%);fill-opacity:1;" d="M 858.683594 1545.273438 L 895.066406 1545.273438 L 895.066406 1400.4375 L 858.683594 1400.4375 Z M 858.683594 1545.273438 "/>
<path style=" stroke:none;fill-rule:nonzero;fill:rgb(0%,21.166992%,34.104919%);fill-opacity:1;" d="M 1032.03125 1400.433594 L 1032.03125 1430.601563 L 958.476563 1430.601563 L 958.476563 1457.667969 L 1024.878906 1457.667969 L 1024.878906 1487.625 L 958.476563 1487.835938 L 958.476563 1515.109375 L 1034.019531 1515.109375 L 1034.019531 1545.269531 L 922.097656 1545.269531 L 922.097656 1400.433594 "/>
<path style=" stroke:none;fill-rule:nonzero;fill:rgb(0%,21.166992%,34.104919%);fill-opacity:1;" d="M 1139.96875 1545.273438 L 1119.699219 1505.1875 L 1092.660156 1505.1875 L 1092.660156 1545.273438 L 1056.269531 1545.273438 L 1056.269531 1400.4375 L 1118.898438 1400.4375 C 1155.878906 1400.4375 1176.949219 1419.03125 1176.949219 1451.265625 C 1176.949219 1473.160156 1168.199219 1489.285156 1152.101563 1497.960938 L 1181.128906 1545.273438 Z M 1092.660156 1475.019531 L 1119.101563 1475.019531 C 1133.808594 1475.019531 1142.359375 1467.171875 1142.359375 1452.503906 C 1142.359375 1438.246094 1133.808594 1430.605469 1119.101563 1430.605469 L 1092.660156 1430.605469 "/>
<path style=" stroke:none;fill-rule:nonzero;fill:rgb(0%,21.166992%,34.104919%);fill-opacity:1;" d="M 1232.210938 1400.433594 L 1295.429688 1487.625 L 1295.429688 1400.433594 L 1329.230469 1400.433594 L 1329.230469 1545.269531 L 1297.421875 1545.269531 L 1234.199219 1458.492188 L 1234.199219 1545.269531 L 1200.199219 1545.269531 L 1200.199219 1400.433594 "/>
<path style=" stroke:none;fill-rule:nonzero;fill:rgb(0%,21.166992%,34.104919%);fill-opacity:1;" d="M 1498.199219 1472.75 C 1498.199219 1515.105469 1465.988281 1546.929688 1422.851563 1546.929688 C 1379.710938 1546.929688 1347.511719 1515.105469 1347.511719 1472.75 C 1347.511719 1430.605469 1379.710938 1399.402344 1422.851563 1399.402344 C 1465.988281 1399.402344 1498.199219 1430.808594 1498.199219 1472.75 M 1384.878906 1472.960938 C 1384.878906 1496.511719 1402.570313 1514.695313 1423.25 1514.695313 C 1444.121094 1514.695313 1460.820313 1496.511719 1460.820313 1472.960938 C 1460.820313 1449.40625 1444.121094 1431.636719 1423.25 1431.636719 C 1402.378906 1431.636719 1384.878906 1449.40625 1384.878906 1472.960938 "/>
<path style=" stroke:none;fill-rule:nonzero;fill:rgb(0%,21.166992%,34.104919%);fill-opacity:1;" d="M 1631.480469 1529.570313 C 1630.609375 1532.875 1630.179688 1535.84375 1630.179688 1538.457031 C 1630.179688 1542.039063 1631.839844 1543.828125 1635.148438 1543.828125 C 1637.800781 1543.828125 1640.191406 1543.035156 1642.308594 1541.453125 C 1644.429688 1539.871094 1646.25 1538.074219 1647.78125 1536.082031 C 1649.289063 1534.089844 1650.558594 1532.089844 1651.550781 1530.089844 C 1652.550781 1528.09375 1653.25 1526.679688 1653.640625 1525.855469 L 1656.21875 1527.296875 C 1655.558594 1528.816406 1654.570313 1530.742188 1653.25 1533.085938 C 1651.921875 1535.429688 1650.191406 1537.664063 1648.070313 1539.796875 C 1645.949219 1541.9375 1643.511719 1543.796875 1640.71875 1545.378906 C 1637.941406 1546.960938 1634.691406 1547.753906 1630.980469 1547.753906 C 1622.230469 1547.753906 1617.859375 1543.621094 1617.859375 1535.355469 C 1617.859375 1534.394531 1618.058594 1532.703125 1618.449219 1530.292969 C 1618.851563 1527.886719 1619.378906 1525.714844 1620.039063 1523.789063 L 1619.648438 1523.789063 C 1617.789063 1526.132813 1615.671875 1528.710938 1613.28125 1531.535156 C 1610.898438 1534.359375 1608.21875 1536.972656 1605.230469 1539.386719 C 1602.25 1541.796875 1598.96875 1543.796875 1595.390625 1545.378906 C 1591.820313 1546.960938 1587.839844 1547.753906 1583.46875 1547.753906 C 1580.691406 1547.753906 1578 1547.238281 1575.410156 1546.203125 C 1572.828125 1545.171875 1570.550781 1543.589844 1568.558594 1541.453125 C 1566.570313 1539.316406 1565.011719 1536.597656 1563.890625 1533.289063 C 1562.761719 1529.984375 1562.199219 1526.058594 1562.199219 1521.511719 C 1562.199219 1516.003906 1563.25 1510.496094 1565.378906 1504.984375 C 1567.488281 1499.480469 1570.25 1494.210938 1573.628906 1489.179688 C 1577.011719 1484.152344 1580.910156 1479.507813 1585.359375 1475.238281 C 1589.789063 1470.96875 1594.300781 1467.25 1598.871094 1464.074219 C 1603.441406 1460.914063 1607.949219 1458.433594 1612.390625 1456.636719 C 1616.828125 1454.851563 1620.769531 1453.953125 1624.21875 1453.953125 C 1628.199219 1453.953125 1631.570313 1455.121094 1634.359375 1457.46875 C 1637.140625 1459.8125 1638.53125 1462.90625 1638.53125 1466.765625 L 1638.929688 1466.765625 L 1664.78125 1391.144531 L 1647.28125 1391.144531 L 1648.070313 1388.253906 L 1679.679688 1388.253906 L 1634.550781 1519.242188 C 1633.371094 1522.820313 1632.339844 1526.269531 1631.480469 1529.570313 M 1636.050781 1474.300781 C 1636.511719 1472.441406 1636.738281 1470.832031 1636.738281 1469.445313 C 1636.738281 1468.210938 1636.578125 1466.871094 1636.238281 1465.421875 C 1635.910156 1463.972656 1635.320313 1462.628906 1634.460938 1461.394531 C 1633.589844 1460.148438 1632.441406 1459.085938 1630.980469 1458.1875 C 1629.519531 1457.296875 1627.601563 1456.847656 1625.210938 1456.847656 C 1620.839844 1456.847656 1616.570313 1458.121094 1612.390625 1460.667969 C 1608.21875 1463.21875 1604.308594 1466.554688 1600.660156 1470.691406 C 1597.011719 1474.816406 1593.671875 1479.546875 1590.621094 1484.839844 C 1587.578125 1490.144531 1584.960938 1495.515625 1582.769531 1500.953125 C 1580.589844 1506.402344 1578.890625 1511.667969 1577.699219 1516.761719 C 1576.511719 1521.863281 1575.910156 1526.335938 1575.910156 1530.191406 C 1575.910156 1534.605469 1576.738281 1538.179688 1578.398438 1540.9375 C 1580.050781 1543.691406 1582.800781 1545.066406 1586.648438 1545.066406 C 1590.488281 1545.066406 1594.398438 1543.828125 1598.371094 1541.347656 C 1602.351563 1538.871094 1605.988281 1535.910156 1609.308594 1532.464844 C 1612.621094 1529.023438 1615.46875 1525.578125 1617.859375 1522.132813 C 1620.238281 1518.695313 1621.761719 1516.003906 1622.429688 1514.078125 L 1632.96875 1483.703125 C 1634.550781 1479.296875 1635.578125 1476.164063 1636.050781 1474.300781 "/>
<path style=" stroke:none;fill-rule:nonzero;fill:rgb(0%,21.166992%,34.104919%);fill-opacity:1;" d="M 1731.960938 1530.296875 C 1730.371094 1532.84375 1728.179688 1535.390625 1725.398438 1537.9375 C 1722.621094 1540.488281 1719.210938 1542.761719 1715.160156 1544.761719 C 1711.121094 1546.753906 1706.25 1547.757813 1700.550781 1547.757813 C 1694.851563 1547.757813 1690.050781 1546.789063 1686.140625 1544.859375 C 1682.230469 1542.933594 1679.050781 1540.453125 1676.601563 1537.425781 C 1674.140625 1534.394531 1672.351563 1531.050781 1671.230469 1527.402344 C 1670.101563 1523.753906 1669.539063 1520.203125 1669.539063 1516.765625 C 1669.539063 1509.878906 1671.160156 1502.75 1674.410156 1495.378906 C 1677.660156 1488.011719 1681.898438 1481.261719 1687.128906 1475.128906 C 1692.371094 1469.007813 1698.300781 1463.941406 1704.929688 1459.945313 C 1711.550781 1455.949219 1718.308594 1453.957031 1725.199219 1453.957031 C 1727.851563 1453.957031 1730.5 1454.265625 1733.160156 1454.886719 C 1735.800781 1455.503906 1738.191406 1456.429688 1740.308594 1457.675781 C 1742.429688 1458.910156 1744.148438 1460.496094 1745.480469 1462.425781 C 1746.800781 1464.355469 1747.46875 1466.699219 1747.46875 1469.449219 C 1747.46875 1473.164063 1746.511719 1476.441406 1744.589844 1479.265625 C 1742.660156 1482.085938 1740.179688 1484.5 1737.128906 1486.492188 C 1734.078125 1488.492188 1730.738281 1490.179688 1727.089844 1491.558594 C 1723.449219 1492.933594 1719.898438 1494.007813 1716.460938 1494.757813 C 1713 1495.519531 1709.859375 1496.066406 1707.011719 1496.410156 C 1704.160156 1496.757813 1702.078125 1496.929688 1700.75 1496.929688 C 1698.5 1496.929688 1696.308594 1496.859375 1694.199219 1496.71875 C 1692.070313 1496.585938 1690.210938 1496.382813 1688.628906 1496.105469 C 1687.160156 1500.507813 1685.941406 1504.882813 1684.949219 1509.222656 C 1683.949219 1513.558594 1683.449219 1518.144531 1683.449219 1522.960938 C 1683.449219 1530.398438 1685.308594 1535.941406 1689.019531 1539.59375 C 1692.730469 1543.238281 1697.441406 1545.066406 1703.140625 1545.066406 C 1707.371094 1545.066406 1711.121094 1544.207031 1714.371094 1542.484375 C 1717.609375 1540.761719 1720.460938 1538.738281 1722.921875 1536.390625 C 1725.371094 1534.046875 1727.421875 1531.671875 1729.078125 1529.261719 C 1730.738281 1526.855469 1732.089844 1524.960938 1733.160156 1523.582031 L 1735.539063 1525.027344 C 1734.75 1525.992188 1733.550781 1527.746094 1731.960938 1530.296875 M 1732.761719 1459.742188 C 1731.171875 1457.816406 1728.511719 1456.847656 1724.808594 1456.847656 C 1720.699219 1456.847656 1716.761719 1458.085938 1712.96875 1460.566406 C 1709.199219 1463.046875 1705.789063 1466.113281 1702.738281 1469.757813 C 1699.691406 1473.410156 1697.039063 1477.335938 1694.789063 1481.535156 C 1692.53125 1485.734375 1690.808594 1489.632813 1689.621094 1493.210938 C 1692.660156 1493.761719 1696.050781 1494.035156 1699.761719 1494.035156 C 1704.53125 1494.035156 1709.03125 1493.28125 1713.28125 1491.765625 C 1717.511719 1490.246094 1721.261719 1488.253906 1724.5 1485.773438 C 1727.75 1483.292969 1730.339844 1480.402344 1732.261719 1477.09375 C 1734.179688 1473.785156 1735.140625 1470.347656 1735.140625 1466.761719 C 1735.140625 1464.011719 1734.339844 1461.667969 1732.761719 1459.742188 "/>
<path style=" stroke:none;fill-rule:nonzero;fill:rgb(0%,21.166992%,34.104919%);fill-opacity:1;" d="M 433.015625 1672.632813 L 472.652344 1672.632813 L 472.652344 1740.898438 C 463.59375 1747.648438 453.171875 1752.828125 441.394531 1756.433594 C 429.621094 1760.046875 417.84375 1761.851563 406.0625 1761.851563 C 389.449219 1761.851563 374.503906 1758.199219 361.21875 1750.902344 C 347.929688 1743.605469 337.503906 1733.449219 329.957031 1720.421875 C 322.40625 1707.398438 318.636719 1692.644531 318.636719 1676.164063 C 318.636719 1659.6875 322.40625 1644.941406 329.957031 1631.910156 C 337.503906 1618.882813 348.003906 1608.726563 361.445313 1601.429688 C 374.878906 1594.125 390.058594 1590.480469 406.972656 1590.480469 C 421.769531 1590.480469 435.058594 1593.066406 446.835938 1598.246094 C 458.613281 1603.425781 468.425781 1610.878906 476.273438 1620.613281 L 447.738281 1647.445313 C 437.015625 1635.207031 424.179688 1629.085938 409.234375 1629.085938 C 395.644531 1629.085938 384.691406 1633.359375 376.390625 1641.914063 C 368.085938 1650.472656 363.933594 1661.886719 363.933594 1676.164063 C 363.933594 1685.265625 365.820313 1693.386719 369.597656 1700.53125 C 373.371094 1707.667969 378.65625 1713.242188 385.453125 1717.242188 C 392.246094 1721.242188 400.023438 1723.246094 408.78125 1723.246094 C 417.386719 1723.246094 425.460938 1721.445313 433.015625 1717.832031 "/>
<path style=" stroke:none;fill-rule:nonzero;fill:rgb(0%,21.166992%,34.104919%);fill-opacity:1;" d="M 519.421875 1741.839844 C 506.363281 1728.503906 499.832031 1709.59375 499.832031 1685.113281 L 499.832031 1593.773438 L 544.675781 1593.773438 L 544.675781 1683.695313 C 544.675781 1710.0625 554.714844 1723.246094 574.796875 1723.246094 C 594.734375 1723.246094 604.703125 1710.0625 604.703125 1683.695313 L 604.703125 1593.773438 L 648.867188 1593.773438 L 648.867188 1685.113281 C 648.867188 1709.59375 642.339844 1728.503906 629.277344 1741.839844 C 616.214844 1755.179688 597.902344 1761.851563 574.351563 1761.851563 C 550.796875 1761.851563 532.480469 1755.179688 519.421875 1741.839844 "/>
<path style=" stroke:none;fill-rule:nonzero;fill:rgb(0%,21.166992%,34.104919%);fill-opacity:1;" d="M 782.046875 1726.539063 L 715.003906 1726.539063 L 702.546875 1758.554688 L 656.792969 1758.554688 L 726.78125 1593.773438 L 770.945313 1593.773438 L 841.160156 1758.554688 L 794.503906 1758.554688 Z M 768.910156 1692.171875 L 748.523438 1639.441406 L 728.140625 1692.171875 "/>
<path style=" stroke:none;fill-rule:nonzero;fill:rgb(0%,21.166992%,34.104919%);fill-opacity:1;" d="M 879.671875 1630.734375 L 830.972656 1630.734375 L 830.972656 1593.773438 L 972.988281 1593.773438 L 972.988281 1630.734375 L 924.519531 1630.734375 L 924.519531 1758.558594 L 879.671875 1758.558594 "/>
<path style=" stroke:none;fill-rule:nonzero;fill:rgb(0%,21.166992%,34.104919%);fill-opacity:1;" d="M 1117.03125 1722.539063 L 1117.03125 1758.554688 L 989.746094 1758.554688 L 989.746094 1593.773438 L 1114.089844 1593.773438 L 1114.089844 1629.789063 L 1034.140625 1629.789063 L 1034.140625 1657.570313 L 1104.578125 1657.570313 L 1104.578125 1692.40625 L 1034.140625 1692.40625 L 1034.140625 1722.539063 "/>
<path style=" stroke:none;fill-rule:nonzero;fill:rgb(0%,21.166992%,34.104919%);fill-opacity:1;" d="M 1285.101563 1758.554688 L 1284.640625 1671.222656 L 1243.871094 1742.3125 L 1223.941406 1742.3125 L 1183.398438 1673.574219 L 1183.398438 1758.554688 L 1141.949219 1758.554688 L 1141.949219 1593.777344 L 1178.871094 1593.777344 L 1234.589844 1688.875 L 1288.949219 1593.777344 L 1325.871094 1593.777344 L 1326.320313 1758.554688 "/>
<path style=" stroke:none;fill-rule:nonzero;fill:rgb(0%,21.166992%,34.104919%);fill-opacity:1;" d="M 1464.261719 1726.539063 L 1397.210938 1726.539063 L 1384.761719 1758.554688 L 1339 1758.554688 L 1408.988281 1593.773438 L 1453.160156 1593.773438 L 1523.371094 1758.554688 L 1476.710938 1758.554688 Z M 1451.121094 1692.171875 L 1430.730469 1639.441406 L 1410.351563 1692.171875 "/>
<path style=" stroke:none;fill-rule:nonzero;fill:rgb(0%,21.166992%,34.104919%);fill-opacity:1;" d="M 1536.050781 1593.773438 L 1580.898438 1593.773438 L 1580.898438 1721.597656 L 1656.550781 1721.597656 L 1656.550781 1758.550781 L 1536.050781 1758.550781 "/>
<path style=" stroke:none;fill-rule:nonzero;fill:rgb(0%,21.166992%,34.104919%);fill-opacity:1;" d="M 1726.988281 1593.773438 L 1657 1758.554688 L 1702.75 1758.554688 L 1715.210938 1726.539063 L 1782.25 1726.539063 L 1794.710938 1758.554688 L 1841.359375 1758.554688 L 1771.148438 1593.773438 Z M 1748.730469 1639.441406 L 1769.121094 1692.171875 L 1728.339844 1692.171875 "/>
<path style=" stroke:none;fill-rule:nonzero;fill:rgb(7.835388%,54.101563%,76.171875%);fill-opacity:1;" d="M 583.160156 1795.171875 L 599.039063 1795.171875 C 602.71875 1795.171875 605.980469 1795.855469 608.828125 1797.230469 C 611.679688 1798.605469 613.882813 1800.554688 615.449219 1803.078125 C 617.019531 1805.601563 617.800781 1808.554688 617.800781 1811.9375 C 617.800781 1815.320313 617.019531 1818.273438 615.449219 1820.796875 C 613.882813 1823.320313 611.679688 1825.269531 608.828125 1826.644531 C 605.980469 1828.019531 602.71875 1828.703125 599.039063 1828.703125 L 583.160156 1828.703125 Z M 598.660156 1821.136719 C 601.539063 1821.136719 603.847656 1820.316406 605.59375 1818.691406 C 607.335938 1817.0625 608.207031 1814.8125 608.207031 1811.9375 C 608.207031 1809.0625 607.335938 1806.8125 605.59375 1805.183594 C 603.847656 1803.550781 601.539063 1802.738281 598.660156 1802.738281 L 592.660156 1802.738281 L 592.660156 1821.136719 "/>
<path style=" stroke:none;fill-rule:nonzero;fill:rgb(7.835388%,54.101563%,76.171875%);fill-opacity:1;" d="M 647.070313 1819.792969 L 641.890625 1819.792969 L 641.890625 1828.703125 L 632.390625 1828.703125 L 632.390625 1795.171875 L 647.742188 1795.171875 C 650.78125 1795.171875 653.421875 1795.675781 655.660156 1796.675781 C 657.898438 1797.6875 659.621094 1799.121094 660.839844 1800.988281 C 662.050781 1802.859375 662.660156 1805.058594 662.660156 1807.578125 C 662.660156 1810.003906 662.09375 1812.121094 660.957031 1813.921875 C 659.824219 1815.730469 658.199219 1817.140625 656.089844 1818.164063 L 663.332031 1828.703125 L 653.160156 1828.703125 Z M 651.578125 1803.9375 C 650.589844 1803.074219 649.117188 1802.644531 647.160156 1802.644531 L 641.890625 1802.644531 L 641.890625 1812.464844 L 647.160156 1812.464844 C 649.117188 1812.464844 650.589844 1812.039063 651.578125 1811.199219 C 652.570313 1810.347656 653.0625 1809.144531 653.0625 1807.578125 C 653.0625 1806.011719 652.570313 1804.800781 651.578125 1803.9375 "/>
<path style=" stroke:none;fill-rule:nonzero;fill:rgb(7.835388%,54.101563%,76.171875%);fill-opacity:1;" d="M 677.003906 1827.601563 C 675.945313 1826.578125 675.421875 1825.289063 675.421875 1823.71875 C 675.421875 1822.125 675.941406 1820.835938 676.980469 1819.84375 C 678.019531 1818.851563 679.324219 1818.355469 680.894531 1818.355469 C 682.492188 1818.355469 683.796875 1818.851563 684.824219 1819.84375 C 685.847656 1820.835938 686.363281 1822.125 686.363281 1823.71875 C 686.363281 1825.289063 685.839844 1826.578125 684.800781 1827.601563 C 683.761719 1828.621094 682.453125 1829.132813 680.894531 1829.132813 C 679.355469 1829.132813 678.0625 1828.621094 677.003906 1827.601563 "/>
<path style=" stroke:none;fill-rule:nonzero;fill:rgb(7.835388%,54.101563%,76.171875%);fill-opacity:1;" d="M 735.011719 1795.167969 L 720.1875 1828.703125 L 729.878906 1828.703125 L 732.511719 1822.1875 L 746.71875 1822.1875 L 749.359375 1828.703125 L 759.242188 1828.703125 L 744.371094 1795.167969 Z M 739.621094 1804.464844 L 743.9375 1815.191406 L 735.300781 1815.191406 "/>
<path style=" stroke:none;fill-rule:nonzero;fill:rgb(7.835388%,54.101563%,76.171875%);fill-opacity:1;" d="M 771.527344 1795.167969 L 771.527344 1828.703125 L 797.046875 1828.703125 L 797.046875 1821.183594 L 781.027344 1821.183594 L 781.027344 1795.167969 "/>
<path style=" stroke:none;fill-rule:nonzero;fill:rgb(7.835388%,54.101563%,76.171875%);fill-opacity:1;" d="M 810.382813 1795.167969 L 810.382813 1828.703125 L 837.351563 1828.703125 L 837.351563 1821.375 L 819.789063 1821.375 L 819.789063 1815.238281 L 834.710938 1815.238281 L 834.710938 1808.152344 L 819.789063 1808.152344 L 819.789063 1802.503906 L 836.722656 1802.503906 L 836.722656 1795.167969 "/>
<path style=" stroke:none;fill-rule:nonzero;fill:rgb(7.835388%,54.101563%,76.171875%);fill-opacity:1;" d="M 852.847656 1828.105469 C 850.828125 1827.253906 849.183594 1826.035156 847.90625 1824.4375 L 853.085938 1818.308594 C 854.875 1820.640625 856.816406 1821.804688 858.894531 1821.804688 C 860.265625 1821.804688 861.3125 1821.390625 862.03125 1820.5625 C 862.753906 1819.730469 863.113281 1818.519531 863.113281 1816.917969 L 863.113281 1802.496094 L 851.503906 1802.496094 L 851.503906 1795.167969 L 872.515625 1795.167969 L 872.515625 1816.347656 C 872.515625 1820.691406 871.421875 1823.945313 869.230469 1826.117188 C 867.039063 1828.289063 863.816406 1829.371094 859.566406 1829.371094 C 857.097656 1829.371094 854.863281 1828.953125 852.847656 1828.105469 "/>
<path style=" stroke:none;fill-rule:nonzero;fill:rgb(7.835388%,54.101563%,76.171875%);fill-opacity:1;" d="M 898.617188 1795.167969 L 883.796875 1828.703125 L 893.484375 1828.703125 L 896.125 1822.1875 L 910.324219 1822.1875 L 912.964844 1828.703125 L 922.847656 1828.703125 L 907.976563 1795.167969 Z M 903.226563 1804.464844 L 907.546875 1815.191406 L 898.90625 1815.191406 "/>
<path style=" stroke:none;fill-rule:nonzero;fill:rgb(7.835388%,54.101563%,76.171875%);fill-opacity:1;" d="M 957.78125 1795.167969 L 957.78125 1813.035156 L 942.953125 1795.167969 L 935.132813 1795.167969 L 935.132813 1828.703125 L 944.441406 1828.703125 L 944.441406 1810.835938 L 959.261719 1828.703125 L 967.082031 1828.703125 L 967.082031 1795.167969 "/>
<path style=" stroke:none;fill-rule:nonzero;fill:rgb(7.835388%,54.101563%,76.171875%);fill-opacity:1;" d="M 983.398438 1795.171875 L 999.277344 1795.171875 C 1002.960938 1795.171875 1006.21875 1795.855469 1009.070313 1797.230469 C 1011.921875 1798.605469 1014.121094 1800.554688 1015.691406 1803.078125 C 1017.261719 1805.601563 1018.039063 1808.554688 1018.039063 1811.9375 C 1018.039063 1815.320313 1017.261719 1818.273438 1015.691406 1820.796875 C 1014.121094 1823.320313 1011.921875 1825.269531 1009.070313 1826.644531 C 1006.21875 1828.019531 1002.960938 1828.703125 999.277344 1828.703125 L 983.398438 1828.703125 Z M 998.898438 1821.136719 C 1001.78125 1821.136719 1004.089844 1820.316406 1005.828125 1818.691406 C 1007.570313 1817.0625 1008.449219 1814.8125 1008.449219 1811.9375 C 1008.449219 1809.0625 1007.570313 1806.8125 1005.828125 1805.183594 C 1004.089844 1803.550781 1001.78125 1802.738281 998.898438 1802.738281 L 992.898438 1802.738281 L 992.898438 1821.136719 "/>
<path style=" stroke:none;fill-rule:nonzero;fill:rgb(7.835388%,54.101563%,76.171875%);fill-opacity:1;" d="M 1047.308594 1819.792969 L 1042.121094 1819.792969 L 1042.121094 1828.703125 L 1032.628906 1828.703125 L 1032.628906 1795.171875 L 1047.980469 1795.171875 C 1051.019531 1795.171875 1053.660156 1795.675781 1055.898438 1796.675781 C 1058.128906 1797.6875 1059.859375 1799.121094 1061.078125 1800.988281 C 1062.289063 1802.859375 1062.898438 1805.058594 1062.898438 1807.578125 C 1062.898438 1810.003906 1062.328125 1812.121094 1061.191406 1813.921875 C 1060.058594 1815.730469 1058.441406 1817.140625 1056.328125 1818.164063 L 1063.570313 1828.703125 L 1053.398438 1828.703125 Z M 1051.820313 1803.9375 C 1050.828125 1803.074219 1049.351563 1802.644531 1047.398438 1802.644531 L 1042.121094 1802.644531 L 1042.121094 1812.464844 L 1047.398438 1812.464844 C 1049.351563 1812.464844 1050.828125 1812.039063 1051.820313 1811.199219 C 1052.808594 1810.347656 1053.300781 1809.144531 1053.300781 1807.578125 C 1053.300781 1806.011719 1052.808594 1804.800781 1051.820313 1803.9375 "/>
<path style=" stroke:none;fill-rule:nonzero;fill:rgb(7.835388%,54.101563%,76.171875%);fill-opacity:1;" d="M 1085.089844 1827.121094 C 1082.261719 1825.621094 1080.039063 1823.546875 1078.421875 1820.894531 C 1076.808594 1818.246094 1075.988281 1815.261719 1075.988281 1811.9375 C 1075.988281 1808.613281 1076.808594 1805.632813 1078.421875 1802.980469 C 1080.039063 1800.328125 1082.261719 1798.253906 1085.089844 1796.753906 C 1087.921875 1795.253906 1091.109375 1794.503906 1094.660156 1794.503906 C 1098.210938 1794.503906 1101.398438 1795.253906 1104.230469 1796.753906 C 1107.058594 1798.253906 1109.289063 1800.328125 1110.898438 1802.980469 C 1112.519531 1805.632813 1113.320313 1808.613281 1113.320313 1811.9375 C 1113.320313 1815.261719 1112.519531 1818.246094 1110.898438 1820.894531 C 1109.289063 1823.546875 1107.058594 1825.621094 1104.230469 1827.121094 C 1101.398438 1828.625 1098.210938 1829.375 1094.660156 1829.375 C 1091.109375 1829.375 1087.921875 1828.625 1085.089844 1827.121094 M 1099.269531 1820.316406 C 1100.640625 1819.523438 1101.730469 1818.398438 1102.53125 1816.941406 C 1103.328125 1815.488281 1103.730469 1813.820313 1103.730469 1811.9375 C 1103.730469 1810.054688 1103.328125 1808.382813 1102.53125 1806.929688 C 1101.730469 1805.476563 1100.640625 1804.351563 1099.269531 1803.550781 C 1097.890625 1802.757813 1096.359375 1802.359375 1094.660156 1802.359375 C 1092.96875 1802.359375 1091.429688 1802.757813 1090.050781 1803.550781 C 1088.671875 1804.351563 1087.589844 1805.476563 1086.789063 1806.929688 C 1085.988281 1808.382813 1085.589844 1810.054688 1085.589844 1811.9375 C 1085.589844 1813.820313 1085.988281 1815.488281 1086.789063 1816.941406 C 1087.589844 1818.398438 1088.671875 1819.523438 1090.050781 1820.316406 C 1091.429688 1821.117188 1092.96875 1821.519531 1094.660156 1821.519531 C 1096.359375 1821.519531 1097.890625 1821.117188 1099.269531 1820.316406 "/>
<path style=" stroke:none;fill-rule:nonzero;fill:rgb(7.835388%,54.101563%,76.171875%);fill-opacity:1;" d="M 1173.96875 1811.21875 L 1182.371094 1811.21875 L 1182.371094 1825.109375 C 1180.449219 1826.484375 1178.238281 1827.535156 1175.738281 1828.273438 C 1173.25 1829.007813 1170.761719 1829.375 1168.261719 1829.375 C 1164.738281 1829.375 1161.570313 1828.628906 1158.761719 1827.148438 C 1155.949219 1825.660156 1153.738281 1823.589844 1152.140625 1820.9375 C 1150.539063 1818.292969 1149.738281 1815.289063 1149.738281 1811.9375 C 1149.738281 1808.585938 1150.539063 1805.582031 1152.140625 1802.929688 C 1153.738281 1800.277344 1155.960938 1798.210938 1158.800781 1796.726563 C 1161.660156 1795.238281 1164.871094 1794.5 1168.449219 1794.5 C 1171.589844 1794.5 1174.398438 1795.023438 1176.890625 1796.082031 C 1179.390625 1797.132813 1181.46875 1798.652344 1183.128906 1800.628906 L 1177.089844 1806.09375 C 1174.820313 1803.601563 1172.101563 1802.359375 1168.929688 1802.359375 C 1166.050781 1802.359375 1163.730469 1803.226563 1161.96875 1804.96875 C 1160.210938 1806.707031 1159.339844 1809.035156 1159.339844 1811.9375 C 1159.339844 1813.789063 1159.730469 1815.4375 1160.53125 1816.898438 C 1161.328125 1818.347656 1162.449219 1819.480469 1163.890625 1820.292969 C 1165.328125 1821.113281 1166.980469 1821.519531 1168.828125 1821.519531 C 1170.660156 1821.519531 1172.371094 1821.148438 1173.96875 1820.414063 "/>
<path style=" stroke:none;fill-rule:nonzero;fill:rgb(7.835388%,54.101563%,76.171875%);fill-opacity:1;" d="M 1198.011719 1828.703125 L 1207.511719 1828.703125 L 1207.511719 1795.167969 L 1198.011719 1795.167969 Z M 1198.011719 1828.703125 "/>
<path style=" stroke:none;fill-rule:nonzero;fill:rgb(7.835388%,54.101563%,76.171875%);fill-opacity:1;" d="M 1234.660156 1795.167969 L 1219.839844 1828.703125 L 1229.53125 1828.703125 L 1232.160156 1822.1875 L 1246.371094 1822.1875 L 1249 1828.703125 L 1258.890625 1828.703125 L 1244.019531 1795.167969 Z M 1239.269531 1804.464844 L 1243.578125 1815.191406 L 1234.949219 1815.191406 "/>
<path style=" stroke:none;fill-rule:nonzero;fill:rgb(7.835388%,54.101563%,76.171875%);fill-opacity:1;" d="M 1302.308594 1795.167969 L 1290.800781 1814.519531 L 1278.988281 1795.167969 L 1271.171875 1795.167969 L 1271.171875 1828.703125 L 1279.949219 1828.703125 L 1279.949219 1811.410156 L 1288.539063 1825.398438 L 1292.761719 1825.398438 L 1301.398438 1810.925781 L 1301.5 1828.703125 L 1310.230469 1828.703125 L 1310.128906 1795.167969 "/>
<path style=" stroke:none;fill-rule:nonzero;fill:rgb(7.835388%,54.101563%,76.171875%);fill-opacity:1;" d="M 1357.679688 1795.167969 L 1346.171875 1814.519531 L 1334.359375 1795.167969 L 1326.539063 1795.167969 L 1326.539063 1828.703125 L 1335.320313 1828.703125 L 1335.320313 1811.410156 L 1343.910156 1825.398438 L 1348.128906 1825.398438 L 1356.769531 1810.925781 L 1356.871094 1828.703125 L 1365.601563 1828.703125 L 1365.5 1795.167969 "/>
<path style=" stroke:none;fill-rule:nonzero;fill:rgb(7.835388%,54.101563%,76.171875%);fill-opacity:1;" d="M 1392.699219 1795.167969 L 1377.878906 1828.703125 L 1387.570313 1828.703125 L 1390.210938 1822.1875 L 1404.421875 1822.1875 L 1407.050781 1828.703125 L 1416.929688 1828.703125 L 1402.058594 1795.167969 Z M 1397.308594 1804.464844 L 1401.628906 1815.191406 L 1392.988281 1815.191406 "/>
<path style=" stroke:none;fill-rule:nonzero;fill:rgb(7.835388%,54.101563%,76.171875%);fill-opacity:1;" d="M 1424.371094 1795.167969 L 1424.371094 1802.6875 L 1434.691406 1802.6875 L 1434.691406 1828.703125 L 1444.179688 1828.703125 L 1444.179688 1802.6875 L 1454.460938 1802.6875 L 1454.460938 1795.167969 "/>
<path style=" stroke:none;fill-rule:nonzero;fill:rgb(7.835388%,54.101563%,76.171875%);fill-opacity:1;" d="M 1464.910156 1795.167969 L 1464.910156 1802.6875 L 1475.230469 1802.6875 L 1475.230469 1828.703125 L 1484.730469 1828.703125 L 1484.730469 1802.6875 L 1495 1802.6875 L 1495 1795.167969 "/>
<path style=" stroke:none;fill-rule:nonzero;fill:rgb(7.835388%,54.101563%,76.171875%);fill-opacity:1;" d="M 1508.140625 1795.167969 L 1508.140625 1828.703125 L 1535.101563 1828.703125 L 1535.101563 1821.375 L 1517.539063 1821.375 L 1517.539063 1815.238281 L 1532.460938 1815.238281 L 1532.460938 1808.152344 L 1517.539063 1808.152344 L 1517.539063 1802.503906 L 1534.480469 1802.503906 L 1534.480469 1795.167969 "/>
<path style=" stroke:none;fill-rule:nonzero;fill:rgb(7.835388%,54.101563%,76.171875%);fill-opacity:1;" d="M 1549.980469 1828.703125 L 1559.480469 1828.703125 L 1559.480469 1795.167969 L 1549.980469 1795.167969 Z M 1549.980469 1828.703125 "/>
</g>
</svg>
